# xmcd
#
# Track frame offsets:
#	150
#	18197
#	35705
#	63772
#	87970
#	101457
#	121427
#	143055
#	162605
#	177887
#	208475
#	230209
#	251497
#	271162
#
# Disc length: 3835 seconds
#
# Revision: 1
# Processed by: cddbd v1.5.2PL0 Copyright (c) Steve Scherf et al.
# Submitted via: audiograbber 1.83.01
#
DISCID=c60ef90e
DTITLE=Various Artist - Fresh Blues Vol. 6
DYEAR=2007
DGENRE=Blues
TTITLE0=Omar And The Howlers - Muddy Spring Road
TTITLE1=Tab Benoit - Pack It Up
TTITLE2=Blues Company - Cold Rain
TTITLE3=Bernard Allison - Into My Life
TTITLE4=Bo Ramsey - Hate To See You
TTITLE5=John Lee Hooker, Jr. - I'm In The Mood
TTITLE6=Kelly Joe Phelps - Big Shaky
TTITLE7=Guitar Shorty - We The People
TTITLE8=Cephas and Wiggins - Ain't Seen My Baby
TTITLE9=Walter Trout - After Hours
TTITLE10=Corey Stevens - A Real Good Sign
TTITLE11=Danny Briant's Red Eye Band - Play To Win, Born To Lose
TTITLE12=The JW-Jones Blues Band - Standing In Line
TTITLE13=Maria Muldaur - Lay Baby Lay
EXTD=
EXTT0=
EXTT1=
EXTT2=
EXTT3=
EXTT4=
EXTT5=
EXTT6=
EXTT7=
EXTT8=
EXTT9=
EXTT10=
EXTT11=
EXTT12=
EXTT13=
PLAYORDER=
